<svg width="468" height="99" viewBox="0 0 468 99" fill="none" xmlns="http://www.w3.org/2000/svg">
<path d="M-5.72205e-06 97.4546V4.36365H34.9091C42.0606 4.36365 48.0606 5.69698 52.9091 8.36365C57.7879 11.0303 61.4697 14.697 63.9545 19.3636C66.4697 24 67.7273 29.2727 67.7273 35.1818C67.7273 41.1515 66.4697 46.4546 63.9545 51.0909C61.4394 55.7273 57.7273 59.3788 52.8182 62.0455C47.9091 64.6818 41.8636 66 34.6818 66H11.5455V52.1364H32.4091C36.5909 52.1364 40.0151 51.4091 42.6818 49.9546C45.3485 48.5 47.3182 46.5 48.5909 43.9546C49.8939 41.4091 50.5455 38.4849 50.5455 35.1818C50.5455 31.8788 49.8939 28.9697 48.5909 26.4546C47.3182 23.9394 45.3333 21.9849 42.6364 20.5909C39.9697 19.1667 36.5303 18.4546 32.3182 18.4546H16.8636V97.4546H-5.72205e-06ZM98.3023 98.8182C91.4841 98.8182 85.575 97.3182 80.575 94.3182C75.575 91.3182 71.6962 87.1212 68.9386 81.7273C66.2114 76.3333 64.8477 70.0303 64.8477 62.8182C64.8477 55.6061 66.2114 49.2879 68.9386 43.8636C71.6962 38.4394 75.575 34.2273 80.575 31.2273C85.575 28.2273 91.4841 26.7273 98.3023 26.7273C105.12 26.7273 111.03 28.2273 116.03 31.2273C121.03 34.2273 124.893 38.4394 127.62 43.8636C130.378 49.2879 131.757 55.6061 131.757 62.8182C131.757 70.0303 130.378 76.3333 127.62 81.7273C124.893 87.1212 121.03 91.3182 116.03 94.3182C111.03 97.3182 105.12 98.8182 98.3023 98.8182ZM98.3932 85.6364C102.09 85.6364 105.181 84.6212 107.666 82.5909C110.151 80.5303 111.999 77.7727 113.211 74.3182C114.454 70.8637 115.075 67.0152 115.075 62.7727C115.075 58.5 114.454 54.6364 113.211 51.1818C111.999 47.697 110.151 44.9243 107.666 42.8636C105.181 40.803 102.09 39.7727 98.3932 39.7727C94.6053 39.7727 91.4538 40.803 88.9386 42.8636C86.4538 44.9243 84.5901 47.697 83.3477 51.1818C82.1356 54.6364 81.5295 58.5 81.5295 62.7727C81.5295 67.0152 82.1356 70.8637 83.3477 74.3182C84.5901 77.7727 86.4538 80.5303 88.9386 82.5909C91.4538 84.6212 94.6053 85.6364 98.3932 85.6364ZM132.923 97.4546V27.6364H148.877V39.2727H149.605C150.877 35.2424 153.059 32.1364 156.15 29.9546C159.271 27.7424 162.832 26.6364 166.832 26.6364C167.741 26.6364 168.756 26.6818 169.877 26.7727C171.029 26.8333 171.983 26.9394 172.741 27.0909V42.2273C172.044 41.9849 170.938 41.7727 169.423 41.5909C167.938 41.3788 166.498 41.2727 165.105 41.2727C162.105 41.2727 159.408 41.9243 157.014 43.2273C154.65 44.5 152.786 46.2727 151.423 48.5455C150.059 50.8182 149.377 53.4394 149.377 56.4091V97.4546H132.923ZM209.486 27.6364V40.3636H169.35V27.6364H209.486ZM179.259 10.9091H195.714V76.4546C195.714 78.6667 196.047 80.3637 196.714 81.5455C197.411 82.697 198.32 83.4849 199.441 83.9091C200.562 84.3333 201.805 84.5455 203.168 84.5455C204.198 84.5455 205.138 84.4697 205.986 84.3182C206.865 84.1667 207.532 84.0303 207.986 83.9091L210.759 96.7727C209.88 97.0758 208.623 97.4091 206.986 97.7727C205.38 98.1364 203.411 98.3485 201.077 98.4091C196.956 98.5303 193.244 97.9091 189.941 96.5455C186.638 95.1515 184.017 93 182.077 90.0909C180.168 87.1818 179.229 83.5455 179.259 79.1818V10.9091ZM240.152 98.8182C233.334 98.8182 227.425 97.3182 222.425 94.3182C217.425 91.3182 213.546 87.1212 210.789 81.7273C208.061 76.3333 206.698 70.0303 206.698 62.8182C206.698 55.6061 208.061 49.2879 210.789 43.8636C213.546 38.4394 217.425 34.2273 222.425 31.2273C227.425 28.2273 233.334 26.7273 240.152 26.7273C246.97 26.7273 252.88 28.2273 257.88 31.2273C262.88 34.2273 266.743 38.4394 269.47 43.8636C272.228 49.2879 273.607 55.6061 273.607 62.8182C273.607 70.0303 272.228 76.3333 269.47 81.7273C266.743 87.1212 262.88 91.3182 257.88 94.3182C252.88 97.3182 246.97 98.8182 240.152 98.8182ZM240.243 85.6364C243.94 85.6364 247.031 84.6212 249.516 82.5909C252.001 80.5303 253.849 77.7727 255.061 74.3182C256.304 70.8637 256.925 67.0152 256.925 62.7727C256.925 58.5 256.304 54.6364 255.061 51.1818C253.849 47.697 252.001 44.9243 249.516 42.8636C247.031 40.803 243.94 39.7727 240.243 39.7727C236.455 39.7727 233.304 40.803 230.789 42.8636C228.304 44.9243 226.44 47.697 225.198 51.1818C223.986 54.6364 223.38 58.5 223.38 62.7727C223.38 67.0152 223.986 70.8637 225.198 74.3182C226.44 77.7727 228.304 80.5303 230.789 82.5909C233.304 84.6212 236.455 85.6364 240.243 85.6364ZM310.136 27.6364V40.3636H268.864V27.6364H310.136ZM279.182 97.4546V21.0455C279.182 16.3485 280.152 12.4394 282.091 9.31819C284.061 6.19698 286.697 3.86365 290 2.31819C293.303 0.772736 296.97 7.62939e-06 301 7.62939e-06C303.848 7.62939e-06 306.379 0.227282 308.591 0.681831C310.803 1.13638 312.439 1.54547 313.5 1.9091L310.227 14.6364C309.53 14.4243 308.652 14.2121 307.591 14C306.53 13.7576 305.348 13.6364 304.045 13.6364C300.985 13.6364 298.818 14.3788 297.545 15.8636C296.303 17.3182 295.682 19.4091 295.682 22.1364V97.4546H279.182ZM354.723 68.0909V27.6364H371.177V97.4546H355.223V85.0455H354.495C352.92 88.9546 350.329 92.1515 346.723 94.6364C343.147 97.1212 338.738 98.3637 333.495 98.3637C328.92 98.3637 324.874 97.3485 321.359 95.3182C317.874 93.2576 315.147 90.2727 313.177 86.3637C311.208 82.4243 310.223 77.6667 310.223 72.0909V27.6364H326.677V69.5455C326.677 73.9697 327.889 77.4849 330.314 80.0909C332.738 82.697 335.92 84 339.859 84C342.283 84 344.632 83.4091 346.905 82.2273C349.177 81.0455 351.041 79.2879 352.495 76.9546C353.98 74.5909 354.723 71.6364 354.723 68.0909ZM391.752 56.5455V97.4546H375.298V27.6364H391.025V39.5H391.843C393.449 35.5909 396.01 32.4849 399.525 30.1818C403.07 27.8788 407.449 26.7273 412.661 26.7273C417.48 26.7273 421.677 27.7576 425.252 29.8182C428.858 31.8788 431.646 34.8636 433.616 38.7727C435.616 42.6818 436.601 47.4243 436.57 53V97.4546H420.116V55.5455C420.116 50.8788 418.904 47.2273 416.48 44.5909C414.086 41.9546 410.767 40.6364 406.525 40.6364C403.646 40.6364 401.086 41.2727 398.843 42.5455C396.631 43.7879 394.889 45.5909 393.616 47.9546C392.373 50.3182 391.752 53.1818 391.752 56.5455ZM454.66 98.858C451.097 98.858 448.038 97.5985 445.484 95.0796C442.965 92.5246 441.705 89.4659 441.705 85.9034C441.705 82.3769 442.965 79.3542 445.484 76.8352C448.038 74.3163 451.097 73.0568 454.66 73.0568C458.114 73.0568 461.137 74.3163 463.728 76.8352C466.319 79.3542 467.614 82.3769 467.614 85.9034C467.614 88.2784 467.002 90.4555 465.779 92.4347C464.591 94.3779 463.026 95.9432 461.083 97.1307C459.14 98.2822 456.999 98.858 454.66 98.858Z" fill="url(#paint0_linear_2_56)"/>
<defs>
<linearGradient id="paint0_linear_2_56" x1="-26.6818" y1="-73.5455" x2="477.818" y2="203.955" gradientUnits="userSpaceOnUse">
<stop stop-color="#009689"/>
<stop offset="0.5" stop-color="#005896"/>
<stop offset="1" stop-color="#00963E"/>
</linearGradient>
</defs>
</svg>
